# xmcd
#
# Track frame offsets:
#	150
#	14985
#	26750
#	39660
#	53190
#	66490
#	79197
#	92737
#	105087
#	117715
#	129010
#	141940
#	155227
#	167959
#	179830
#	192765
#	205820
#	218495
#	230650
#	242405
#	253715
#	266357
#	278332
#	289887
#	303015
#
# Disc length: 4177 seconds
#
# Revision: 3
# Processed by: cddbd v1.5.2PL0 Copyright (c) Steve Scherf et al.
# Submitted via: audiograbber 1.83.01
#
DISCID=6e104f19
DTITLE=Gene Autry - The Singing Cowboy - 25 Cowboy Classics
DYEAR=2003
DGENRE=Western
TTITLE0=1933 Last Roundup  (Ziegfield Follies of 1933)
TTITLE1=1935 Someday in Wyoming (In old Santa fe)
TTITLE2=1935 Dear Old Western Skies (Oh Susannah)
TTITLE3=1935 Old Covered Wagon
TTITLE4=1935 Texas Plains
TTITLE5=1936 Mother, Here's a Bouquet for You
TTITLE6=1936 Guns and Guitars (Guns and Guitars)
TTITLE7=1937 When the Golden Leaves Are Falling
TTITLE8=1937 Down in the Land of Zulu (Springtime in the Rockies)
TTITLE9=1937 It's Round-Up Time in Reno (Manhattan Merry Go Round)
TTITLE10=1937 I Want a Pardon for Daddy
TTITLE11=1938 If Today Were the End of the World
TTITLE12=1939 When I First Laid Eyes on You
TTITLE13=1939 If It Wasn't for the Rain
TTITLE14=1939 Little Old Band of Gold (Shooting High)
TTITLE15=1940 Mary Dear
TTITLE16=1940 Sycamore Lane
TTITLE17=1940 Cowboy's Trademarks
TTITLE18=1940 Last Letter
TTITLE19=1941 I Wish All My Children Were Babies Again
TTITLE20=1941 Take Me Back into Your Heart
TTITLE21=1946 Ages and Ages Ago
TTITLE22=1946 Last Mile
TTITLE23=1947 Pretty Mary (Loaded Pistols)
TTITLE24=1947 Little Big Dry (Riders of the Whistling Pines)
EXTD=
EXTT0=
EXTT1=
EXTT2=
EXTT3=
EXTT4=
EXTT5=
EXTT6=
EXTT7=
EXTT8=
EXTT9=
EXTT10=
EXTT11=
EXTT12=
EXTT13=
EXTT14=
EXTT15=
EXTT16=
EXTT17=
EXTT18=
EXTT19=
EXTT20=
EXTT21=
EXTT22=
EXTT23=
EXTT24=
PLAYORDER=
